<svg width="14" height="13" viewBox="0 0 14 13" fill="none" xmlns="http://www.w3.org/2000/svg">
<path d="M6.07031 1.58203C5.79688 1.85547 5.82422 2.26562 6.07031 2.53906L9.37891 5.65625H1.53125C1.14844 5.65625 0.875 5.95703 0.875 6.3125V7.1875C0.875 7.57031 1.14844 7.84375 1.53125 7.84375H9.37891L6.07031 10.9883C5.82422 11.2617 5.82422 11.6719 6.07031 11.9453L6.67188 12.5469C6.94531 12.793 7.35547 12.793 7.60156 12.5469L12.9336 7.21484C13.1797 6.96875 13.1797 6.55859 12.9336 6.28516L7.60156 0.980469C7.35547 0.734375 6.94531 0.734375 6.67188 0.980469L6.07031 1.58203Z" fill="#1565D8"/>
</svg>
